<svg xmlns="http://www.w3.org/2000/svg"  viewBox="0 0 26.18 24.65">
    <g id="Layer_2" data-name="Layer 2">
        <g id="Layer_1-2" data-name="Layer 1">
            <path class="cls-1"
                d="M15,23a.54.54,0,0,1-.15.4.89.89,0,0,1-.7.21H2.74A2.56,2.56,0,0,1,0,20.84V4.61A2.56,2.56,0,0,1,2.67,1.94c.57,0,1.13,0,1.7,0,.42,0,.71.24.7.6s-.28.59-.71.59H2.61A1.34,1.34,0,0,0,1.2,4.53V6.28H23.27V4.46a1.33,1.33,0,0,0-1.33-1.32h-2.3a.76.76,0,0,1-.57-.2.52.52,0,0,1-.16-.4c0-.37.28-.59.73-.59h.79a15.08,15.08,0,0,1,1.9.06,2.42,2.42,0,0,1,2.13,2.44c0,2.09,0,4.21,0,6.26v1.92a.61.61,0,0,1-1,.54.75.75,0,0,1-.2-.54V7.52H1.2v13.4a1.34,1.34,0,0,0,1.46,1.46H14.11C14.79,22.38,14.94,22.7,15,23ZM26.18,19a5.64,5.64,0,0,1-5.62,5.63h0a5.63,5.63,0,0,1,0-11.26h0A5.63,5.63,0,0,1,26.18,19Zm-1.11,0a4.5,4.5,0,0,0-4.47-4.51h0a4.5,4.5,0,0,0-3.19,7.69,4.46,4.46,0,0,0,3.17,1.33h0A4.53,4.53,0,0,0,25.07,19ZM6.4,4.1h0A.56.56,0,0,0,6.81,4,.75.75,0,0,0,7,3.41c0-.31,0-.63,0-.94V1.66c0-.32,0-.65,0-1a.75.75,0,0,0-.2-.54A.58.58,0,0,0,6.4,0a.62.62,0,0,0-.58.69V3.41A.61.61,0,0,0,6.4,4.1Zm5.24-.69a.61.61,0,0,0,.58.69h0A.56.56,0,0,0,12.63,4a.75.75,0,0,0,.2-.54V.69A.62.62,0,0,0,12.25,0a.58.58,0,0,0-.41.15.75.75,0,0,0-.2.54c0,.32,0,.63,0,1v.83C11.63,2.78,11.63,3.1,11.64,3.41Zm5.81,0a.76.76,0,0,0,.2.54.55.55,0,0,0,.4.16h0a.61.61,0,0,0,.59-.68V.67a.68.68,0,0,0-.2-.51.56.56,0,0,0-.4-.16h0a.63.63,0,0,0-.59.68V3.4ZM8,3.13c.33,0,.65,0,1,0h1.75a.62.62,0,0,0,.69-.58.56.56,0,0,0-.16-.41.71.71,0,0,0-.53-.2q-1.37,0-2.73,0a.61.61,0,0,0-.68.58.51.51,0,0,0,.15.41A.71.71,0,0,0,8,3.13Zm5.81,0h2.76a.7.7,0,0,0,.5-.19.53.53,0,0,0,.16-.41.61.61,0,0,0-.68-.59c-.31,0-.63,0-1,0H13.79a.72.72,0,0,0-.54.2.55.55,0,0,0-.16.4A.62.62,0,0,0,13.77,3.13Zm3,7a1,1,0,0,0-.31.76,1.07,1.07,0,0,0,1.07,1.06h0a1.07,1.07,0,0,0,.77-.32,1.06,1.06,0,0,0,.31-.75,1.08,1.08,0,0,0-1.07-1.06A1.11,1.11,0,0,0,16.8,10.12Zm-3.71,4.74A1.09,1.09,0,0,0,14.18,16a1.08,1.08,0,0,0,1.07-1.06,1,1,0,0,0-.3-.76,1.09,1.09,0,0,0-1.86.73ZM10,18a1.05,1.05,0,0,0-.32.75,1.08,1.08,0,0,0,1.05,1.08h0a1.06,1.06,0,0,0,.75-.31,1,1,0,0,0,.33-.75A1.08,1.08,0,0,0,10,18Zm.74-6h0a1.07,1.07,0,0,0,.76-.31,1,1,0,0,0,.32-.76A1.06,1.06,0,0,0,10.8,9.81h0a1.11,1.11,0,0,0-.77.31,1.06,1.06,0,0,0-.31.75A1.08,1.08,0,0,0,10.76,11.94Zm3.42-2.13h0a1.07,1.07,0,1,0,0,2.13h0a1.1,1.1,0,0,0,.78-.32,1,1,0,0,0,.3-.76A1.07,1.07,0,0,0,14.18,9.81ZM21,9.8a1.08,1.08,0,0,0-1.08,1.06,1,1,0,0,0,.31.76,1.06,1.06,0,0,0,.77.32,1.1,1.1,0,0,0,.78-.32,1,1,0,0,0,.3-.76A1.08,1.08,0,0,0,21,9.8ZM4.76,14.13A1.06,1.06,0,0,0,4,13.81H4a1.08,1.08,0,0,0-1.07,1.06,1.1,1.1,0,0,0,.31.76A1.12,1.12,0,0,0,4,16H4a1.08,1.08,0,0,0,1.07-1.07A1,1,0,0,0,4.76,14.13Zm2.63-.32h0a1.08,1.08,0,0,0-.78.32,1.07,1.07,0,0,0-.31.76A1.09,1.09,0,0,0,7.38,16h0a1.12,1.12,0,0,0,.78-.32,1.1,1.1,0,0,0,.31-.76A1.08,1.08,0,0,0,7.39,13.81Zm3.4,0h0A1.08,1.08,0,0,0,9.7,14.89,1.09,1.09,0,0,0,10.77,16h0a1.08,1.08,0,0,0,.77-.33,1.06,1.06,0,0,0,.31-.75A1.08,1.08,0,0,0,10.79,13.81ZM4,17.66a1.08,1.08,0,0,0-1.07,1.07A1.09,1.09,0,0,0,4,19.8H4a1.08,1.08,0,0,0,1.06-1.07A1,1,0,0,0,4.76,18,1.06,1.06,0,0,0,4,17.66Zm3.4,0h0A1.08,1.08,0,0,0,6.3,18.72a1,1,0,0,0,.32.76,1.07,1.07,0,0,0,.76.32h0a1.09,1.09,0,0,0,1.07-1.1A1.08,1.08,0,0,0,7.38,17.66Z" />
            <path class="cls-1"
                d="M23.4,19.27a4,4,0,0,0-.14-2.18h0a1.71,1.71,0,0,0-.86-1,1.45,1.45,0,0,0-1.14,0,2.08,2.08,0,0,1-1.51,0,1.73,1.73,0,0,0-.49-.08,1.36,1.36,0,0,0-1.16.64,2.36,2.36,0,0,0-.33.75A4.9,4.9,0,0,0,19,21.79a.73.73,0,0,0,.66.26.83.83,0,0,0,.63-.46,2.37,2.37,0,0,0,.13-.32c0-.07.05-.14.07-.2a.47.47,0,0,0,0-.1l.08-.14.25.64a.89.89,0,0,0,.64.57.85.85,0,0,0,.8-.35A5.17,5.17,0,0,0,23.4,19.27Zm-1.73,1.48-.05-.13a1.09,1.09,0,0,0-1.11-.78,1.07,1.07,0,0,0-1,.78l-.05.13-.08-.12a4,4,0,0,1-.66-1.82,2.83,2.83,0,0,1,.13-1.37c.1-.25.21-.41.43-.41a.75.75,0,0,1,.29.07,2.73,2.73,0,0,0,2,0,.6.6,0,0,1,.45,0c.12.05.21.18.29.4a3.17,3.17,0,0,1,0,1.91,3.7,3.7,0,0,1-.55,1.25Z" />
        </g>
    </g>
</svg>