<?xml version="1.0" encoding="utf-8"?>
<!-- Generator: Adobe Illustrator 25.3.1, SVG Export Plug-In . SVG Version: 6.00 Build 0)  -->
<svg version="1.1" id="Layer_1" xmlns="http://www.w3.org/2000/svg" xmlns:xlink="http://www.w3.org/1999/xlink" x="0px" y="0px"
	 viewBox="0 0 30 30" style="enable-background:new 0 0 30 30;" xml:space="preserve">
<style type="text/css">
	.st0{fill:#424143;}
</style>
<path class="st0" d="M7.5,2.5c-2.8,0-5,2.2-5,5v15c0,2.8,2.2,5,5,5h15c2.8,0,5-2.2,5-5v-15c0-2.8-2.2-5-5-5H7.5z M10.9,9.8l4.1,4.1
	l4.1-4.1c0.3-0.3,0.8-0.3,1.1,0s0.3,0.8,0,1.1L16.1,15l4.1,4.1c0.3,0.3,0.3,0.8,0,1.1s-0.8,0.3-1.1,0L15,16.1l-4.1,4.1
	c-0.3,0.3-0.8,0.3-1.1,0s-0.3-0.8,0-1.1l4.1-4.1l-4.1-4.1c-0.3-0.3-0.3-0.8,0-1.1S10.6,9.5,10.9,9.8z"/>
</svg>
