<?xml version="1.0" encoding="utf-8"?>
<!-- Generator: Adobe Illustrator 26.4.1, SVG Export Plug-In . SVG Version: 6.00 Build 0)  -->
<svg version="1.1" id="Layer_1" xmlns="http://www.w3.org/2000/svg" xmlns:xlink="http://www.w3.org/1999/xlink" x="0px" y="0px"
	 viewBox="0 0 30 30" style="enable-background:new 0 0 30 30;" xml:space="preserve">
<style type="text/css">
	.st0{fill:#434243;}
</style>
<path class="st0" d="M11,11c0.5-0.5,1.2-0.5,1.6,0l2.3,2.3l2.3-2.3c0.5-0.5,1.2-0.5,1.6,0c0.5,0.5,0.5,1.2,0,1.6L16.7,15l2.3,2.3
	c0.5,0.5,0.5,1.2,0,1.6c-0.4,0.5-1.2,0.5-1.6,0L15,16.7l-2.3,2.3c-0.4,0.5-1.2,0.5-1.6,0c-0.5-0.4-0.5-1.2,0-1.6l2.3-2.3L11,12.7
	C10.6,12.2,10.6,11.5,11,11L11,11z M27.5,15c0,6.9-5.6,12.5-12.5,12.5S2.5,21.9,2.5,15S8.1,2.5,15,2.5S27.5,8.1,27.5,15z M15,4.8
	C9.4,4.8,4.8,9.4,4.8,15S9.4,25.2,15,25.2S25.2,20.6,25.2,15S20.6,4.8,15,4.8z"/>
</svg>
