<?xml version="1.0" encoding="utf-8"?>
<!-- Generator: Adobe Illustrator 26.3.1, SVG Export Plug-In . SVG Version: 6.00 Build 0)  -->
<svg version="1.1" id="Layer_1" xmlns="http://www.w3.org/2000/svg" xmlns:xlink="http://www.w3.org/1999/xlink" x="0px" y="0px"
	 viewBox="0 0 30 30" style="enable-background:new 0 0 30 30;" xml:space="preserve">
<style type="text/css">
	.st0{fill:#424143;}
</style>
<path class="st0" d="M15.9,9.3L16,9.6h-2l0.1-0.4H15.9z M27.5,7.5v15c0,2.8-2.2,5-5,5h-15c-2.8,0-5-2.2-5-5v-15c0-2.8,2.2-5,5-5h15
	C25.3,2.5,27.5,4.7,27.5,7.5z M19.8,11.2c0-0.2-0.1-0.3-0.3-0.3c-0.2,0-0.3,0.1-0.3,0.3l-1,9.6h-6.3l-1-9.6c0-0.2-0.2-0.3-0.3-0.3
	c-0.2,0-0.3,0.2-0.3,0.3l1,9.9c0,0.2,0.1,0.3,0.3,0.3h6.9c0.2,0,0.3-0.1,0.3-0.3L19.8,11.2z M12.9,19.9c0,0.2,0.1,0.3,0.3,0.3
	c0,0,0,0,0,0c0.2,0,0.3-0.1,0.3-0.3l-0.4-7.7c0-0.2-0.1-0.3-0.3-0.3c-0.2,0-0.3,0.1-0.3,0.3L12.9,19.9z M15,20.2
	c0.2,0,0.3-0.1,0.3-0.3v-7.7c0-0.2-0.1-0.3-0.3-0.3c-0.2,0-0.3,0.1-0.3,0.3v7.7C14.7,20.1,14.8,20.2,15,20.2z M16.7,20.2
	C16.8,20.2,16.8,20.2,16.7,20.2c0.2,0,0.3-0.1,0.3-0.3l0.4-7.7c0-0.2-0.1-0.3-0.3-0.3c-0.2,0-0.3,0.1-0.3,0.3l-0.4,7.7
	C16.5,20.1,16.6,20.2,16.7,20.2z M20.6,9.9c0-0.2-0.1-0.3-0.3-0.3h-3.7l-0.3-0.8c0-0.1-0.2-0.2-0.3-0.2h-2.1c-0.1,0-0.2,0.1-0.3,0.2
	l-0.3,0.8H9.6c-0.2,0-0.3,0.1-0.3,0.3c0,0.2,0.1,0.3,0.3,0.3h3.9h2.9h3.9C20.5,10.2,20.6,10.1,20.6,9.9z"/>
</svg>
