<?xml version="1.0" encoding="utf-8"?>
<!-- Generator: Adobe Illustrator 26.3.1, SVG Export Plug-In . SVG Version: 6.00 Build 0)  -->
<svg version="1.1" id="Layer_1" xmlns="http://www.w3.org/2000/svg" xmlns:xlink="http://www.w3.org/1999/xlink" x="0px" y="0px"
	 viewBox="0 0 30 30" style="enable-background:new 0 0 30 30;" xml:space="preserve">
<style type="text/css">
	.st0{fill:#424143;}
</style>
<path class="st0" d="M20.9,3.5c1.4-1.4,3.6-1.4,5,0l0.6,0.6c1.4,1.4,1.4,3.6,0,5l-9.7,9.7c-0.4,0.4-1,0.7-1.5,0.9l-4.9,1.4
	c-0.4,0.1-0.9,0-1.2-0.3c-0.3-0.3-0.4-0.7-0.3-1.1l1.4-4.9c0.2-0.6,0.5-1.1,0.9-1.5L20.9,3.5z M24.2,5.2c-0.4-0.5-1.2-0.5-1.6,0
	l-1.4,1.4l2.3,2.3l1.4-1.5c0.5-0.4,0.5-1.2,0-1.6L24.2,5.2z M12.5,15.4l-0.8,2.9l2.9-0.8c0.2-0.1,0.4-0.2,0.5-0.3l6.6-6.6l-2.3-2.3
	l-6.6,6.6C12.7,15.1,12.6,15.2,12.5,15.4z M12.3,5.5c0.7,0,1.2,0.5,1.2,1.2c0,0.7-0.5,1.2-1.2,1.2H6.8c-1.1,0-2,0.9-2,2v13.4
	c0,1.1,0.9,2,2,2h13.4c1.1,0,2-0.9,2-2v-5.5c0-0.7,0.5-1.2,1.2-1.2s1.2,0.5,1.2,1.2v5.5c0,2.4-1.9,4.3-4.3,4.3H6.8
	c-2.4,0-4.3-1.9-4.3-4.3V9.8c0-2.4,1.9-4.3,4.3-4.3H12.3z"/>
</svg>
