<svg id="Layer_1" data-name="Layer 1" xmlns="http://www.w3.org/2000/svg" viewBox="0 0 30 30"><defs><style>.cls-1{fill:#ffffff;}</style></defs><path class="cls-1" d="M17.11,13.57a.68.68,0,0,0,.49-.2l5.52-5.52v3a.69.69,0,0,0,1.37,0V6.2a.69.69,0,0,0-.69-.69H19.17a.69.69,0,0,0,0,1.37h3L16.63,12.4a.69.69,0,0,0,.48,1.17Z"/><path class="cls-1" d="M6.2,24.49h4.63a.69.69,0,0,0,0-1.37h-3l5.52-5.52a.69.69,0,0,0-1-1L6.88,22.15v-3a.69.69,0,0,0-1.37,0V23.8A.69.69,0,0,0,6.2,24.49Z"/><path class="cls-1" d="M25.71,2.36H4.29A1.94,1.94,0,0,0,2.36,4.29V25.71a1.94,1.94,0,0,0,1.93,1.93H25.71a1.94,1.94,0,0,0,1.93-1.93V4.29A1.94,1.94,0,0,0,25.71,2.36Zm-22,1.93a.56.56,0,0,1,.56-.56H25.71a.56.56,0,0,1,.56.56V25.71a.56.56,0,0,1-.56.56H4.29a.56.56,0,0,1-.56-.56Z"/></svg>