<svg id="Layer_1" data-name="Layer 1" xmlns="http://www.w3.org/2000/svg" xmlns:xlink="http://www.w3.org/1999/xlink" viewBox="0 0 30 30"><defs><style>.cls-1{fill:url(#linear-gradient);}.cls-2{fill:url(#linear-gradient-2);}</style><linearGradient id="linear-gradient" x1="0.59" y1="9.5" x2="29.41" y2="9.5" gradientUnits="userSpaceOnUse"><stop offset="0" stop-color="#faaf43"/><stop offset="1" stop-color="#d91b5e"/></linearGradient><linearGradient id="linear-gradient-2" x1="4.7" y1="16.99" x2="25.3" y2="16.99" xlink:href="#linear-gradient"/></defs><path class="cls-1" d="M29.2,15.4l-3.9-3.61V5.62A.64.64,0,0,0,24.66,5H20.81a.64.64,0,0,0-.64.64V7.05L15.43,2.67a.62.62,0,0,0-.86,0L.8,15.4a.63.63,0,0,0,0,.9.65.65,0,0,0,.91,0L15,4l5.38,5a.63.63,0,0,0,1.07-.47V6.26H24v5.81a.61.61,0,0,0,.21.47l4.1,3.8a.67.67,0,0,0,.44.17.64.64,0,0,0,.43-1.11Z"/><path class="cls-2" d="M15.43,6.65a.62.62,0,0,0-.86,0L4.91,15.58a.64.64,0,0,0-.21.47V26.86a.64.64,0,0,0,.64.64h6a.64.64,0,0,0,.64-.64v-7.4h6v7.4a.64.64,0,0,0,.64.64h6a.64.64,0,0,0,.64-.64V16.05a.64.64,0,0,0-.21-.47Z"/></svg>