  <svg xmlns="http://www.w3.org/2000/svg" viewBox="0 0 25.29 25">
    <g id="Layer_2" data-name="Layer 2">
        <g id="Layer_1-2" data-name="Layer 1">
            <path class="cls-1"
                d="M18.39,16.62a3,3,0,0,0,.25-.73,3.47,3.47,0,0,0,.1-.78v0a3.73,3.73,0,0,0-.49-1.87,4.68,4.68,0,0,0-.27-.4l-.11-.12-.11-.12-.09-.11-.13-.12-.11-.1-.13-.11-.07-.05L17.11,12a1.77,1.77,0,0,0-.17-.12l0,0h0l0,0-.19-.08-.11,0-.11-.05-.17-.07a2.66,2.66,0,0,0-.6-.12h0a3.11,3.11,0,0,0-1.36.16,5.43,5.43,0,0,1-1,.25l-.4,0h-.4l-.4,0A4.72,4.72,0,0,1,11,11.63a3.11,3.11,0,0,0-1.36-.16l-.08,0A2.64,2.64,0,0,0,9,11.6l-.17.07-.1.05-.12,0a1.63,1.63,0,0,0-.19.09l-.08,0L8.18,12l-.11.08L8,12.14l-.13.12-.1.09-.13.12a.52.52,0,0,0-.1.11l-.11.13a.52.52,0,0,0-.1.11c-.1.14-.19.27-.27.4a3.63,3.63,0,0,0-.49,1.83v0a3.64,3.64,0,0,0,.34,1.53A17.06,17.06,0,0,1,8,19.47l1,3.68v.06l.2.75a1.39,1.39,0,0,0,1,1l.07,0h.09s0,0,0,0h0a1.36,1.36,0,0,0,1.27-.58,1.29,1.29,0,0,0,.25-.63l.4-3.35a.28.28,0,0,1,.29-.26.27.27,0,0,1,.29.26l.41,3.34a1.3,1.3,0,0,0,.24.63,1.39,1.39,0,0,0,1.16.6L15,25a1.37,1.37,0,0,0,1.13-1l.22-.77s0,0,0,0l1-3.68a17.3,17.3,0,0,1,1-2.79v-.06Zm-.88-1.46a3.82,3.82,0,0,1-.06.45,2.23,2.23,0,0,1-.13.39l0,.11,0,.07c-.17.36-.33.75-.51,1.21h0c-.06.17-.13.34-.18.5l0,.07h0v0c-.12.36-.26.77-.37,1.15l-1.5,5.13-.49-4a1.53,1.53,0,0,0-3,0l-.59,4-1.4-5.1c-.1-.36-.23-.73-.37-1.14v0h0l0-.07-.18-.5c-.18-.47-.35-.87-.52-1.22v0L8,16l0-.14a.86.86,0,0,1-.07-.21,3.07,3.07,0,0,1-.07-.53.78.78,0,0,1,0-.16s0-.05,0-.08v-.07a2,2,0,0,1,.05-.34.5.5,0,0,1,0-.13l0-.07v0a2.83,2.83,0,0,1,.16-.36.21.21,0,0,1,.06-.08l0,0a2.25,2.25,0,0,1,.3-.39l.08-.06,0,0a2.5,2.5,0,0,1,.39-.3l.29-.14.06,0a1.86,1.86,0,0,1,1.23,0,6.26,6.26,0,0,0,1.26.29H12l.42,0h.52l.45,0h0a5.8,5.8,0,0,0,1.32-.3,1.89,1.89,0,0,1,1.22,0l.06,0a1.46,1.46,0,0,1,.28.13,2.41,2.41,0,0,1,.42.31l0,0,.07.06a2.68,2.68,0,0,1,.33.43l.06.08a2.66,2.66,0,0,1,.23.54s0,0,0,.05a2.45,2.45,0,0,1,.08.62s0,0,0,0A.22.22,0,0,0,17.51,15.16Z" />
            <polygon class="cls-1" points="16.98 11.75 16.98 11.75 16.98 11.75 16.98 11.75" />
            <polygon class="cls-1" points="16.95 11.74 16.94 11.75 16.94 11.77 16.95 11.74" />
            <path class="cls-1"
                d="M24.78,22.79a3.64,3.64,0,0,0,0-3.65L17.3,5.7v0c0-2,0-3.18,0-3.93V1.6H18A.8.8,0,1,0,18,0H7.27a.8.8,0,1,0,0,1.6H8v.14c0,.75,0,1.94,0,3.93v0L.47,19.14A3.67,3.67,0,0,0,3.68,24.6H7.36L6.92,23H3.68a2,2,0,0,1-1.79-1,2,2,0,0,1,0-2.06L9.49,6.3a.9.9,0,0,0,.1-.39c0-1.27,0-3.09,0-4.17V1.6h6.13v.14c0,1.08,0,2.9,0,4.17a.78.78,0,0,0,.1.39l7.62,13.62a2.05,2.05,0,0,1,0,2.06,2.07,2.07,0,0,1-1.79,1H18.37l-.44,1.59h3.68A3.63,3.63,0,0,0,24.78,22.79Z" />
        </g>
    </g>
</svg>