<svg id="Layer_1" data-name="Layer 1" xmlns="http://www.w3.org/2000/svg" viewBox="0 0 30 30"><defs><style>.cls-1{fill:#ffffff;}</style></defs><path class="cls-1" d="M21.93,13.23H8.07a1.43,1.43,0,0,0-1.42,1.43V26.49a1.43,1.43,0,0,0,1.42,1.42H21.93a1.43,1.43,0,0,0,1.42-1.42V14.66A1.43,1.43,0,0,0,21.93,13.23ZM22,14.66V26.49a.07.07,0,0,1-.07.07H8.07A.07.07,0,0,1,8,26.49V14.66a.08.08,0,0,1,.07-.08H21.93A.08.08,0,0,1,22,14.66Z"/><path class="cls-1" d="M9,13.1a.68.68,0,0,0,.68-.67V8.75a5.31,5.31,0,1,1,10.62,0v3.68a.68.68,0,0,0,1.36,0V8.75a6.67,6.67,0,0,0-13.34,0v3.68A.68.68,0,0,0,9,13.1Z"/><path class="cls-1" d="M15,19.16a2.06,2.06,0,0,0-.68,4v1.89a.68.68,0,0,0,1.36,0V23.17a2.06,2.06,0,0,0-.68-4Zm.71,2.06a.71.71,0,1,1-.71-.71A.71.71,0,0,1,15.71,21.22Z"/></svg>