<?xml version="1.0" encoding="utf-8"?>
<!-- Generator: Adobe Illustrator 26.3.1, SVG Export Plug-In . SVG Version: 6.00 Build 0)  -->
<svg version="1.1" id="Layer_1" xmlns="http://www.w3.org/2000/svg" xmlns:xlink="http://www.w3.org/1999/xlink" x="0px" y="0px"
	 viewBox="0 0 30 30" style="enable-background:new 0 0 30 30;" xml:space="preserve">
<style type="text/css">
	.st0{fill:#424143;}
</style>
<path class="st0" d="M16.6,4.1v0.9c3.5,0.6,6.2,3.6,6.2,7.3v1.6c0,2.2,0.8,4.4,2.1,6.1l0.7,0.9c0.3,0.4,0.3,0.8,0.1,1.2
	s-0.6,0.7-1.1,0.7H5.2c-0.5,0-0.9-0.3-1.1-0.7C4,21.7,4,21.3,4.3,20.9L5,20c1.4-1.7,2.1-3.9,2.1-6.1v-1.6c0-3.7,2.7-6.8,6.2-7.3V4.1
	c0-0.9,0.7-1.6,1.6-1.6S16.6,3.2,16.6,4.1L16.6,4.1z M14.6,7.2c-2.8,0-5.1,2.3-5.1,5.1v1.6c0,2.3-0.7,4.6-1.9,6.6h14.8
	c-1.3-2-1.9-4.2-1.9-6.6v-1.6c0-2.8-2.3-5.1-5.1-5.1H14.6z M18.1,24.4c0,0.8-0.3,1.6-0.9,2.2s-1.4,0.9-2.2,0.9
	c-0.8,0-1.6-0.3-2.2-0.9s-0.9-1.4-0.9-2.2H18.1z"/>
</svg>
