<?xml version="1.0" encoding="utf-8"?>
<!-- Generator: Adobe Illustrator 26.3.1, SVG Export Plug-In . SVG Version: 6.00 Build 0)  -->
<svg version="1.1" id="Layer_1" xmlns="http://www.w3.org/2000/svg" xmlns:xlink="http://www.w3.org/1999/xlink" x="0px" y="0px"
	 viewBox="0 0 30 30" style="enable-background:new 0 0 30 30;" xml:space="preserve">
<style type="text/css">
	.st0{fill:#434142;}
</style>
<path class="st0" d="M9.7,9.6c0.9-1.4,2.4-2.4,4.1-2.7V6.2C13.7,5.6,14.3,5,15,5c0.7,0,1.2,0.6,1.2,1.2v0.7c2.8,0.4,5,2.9,5,5.9v1.3
	c0,1.8,0.6,3.5,1.7,4.9l0.6,0.7c0.2,0.3,0.3,0.6,0.2,0.9l3.4,2.7c0.4,0.3,0.5,0.9,0.2,1.3C27,25,26.4,25.1,26,24.8L2.9,6.7
	C2.5,6.4,2.4,5.8,2.7,5.4C3,5,3.6,4.9,4,5.2L9.7,9.6z M11.2,10.8l8.9,7c-0.5-1.1-0.7-2.4-0.7-3.7v-1.3c0-2.2-1.8-4.1-4.1-4.1h-0.6
	C13.2,8.7,11.9,9.6,11.2,10.8L11.2,10.8z M8.7,14.1v-0.4l1.8,1.4c-0.2,1.5-0.7,3-1.5,4.3H16l2.4,1.9H7.2c-0.4,0-0.7-0.2-0.8-0.5
	c-0.2-0.3-0.1-0.7,0.1-1L7,19C8.1,17.6,8.7,15.9,8.7,14.1L8.7,14.1z M17.5,22.5c0,0.6-0.3,1.3-0.7,1.8C16.3,24.7,15.6,25,15,25
	c-0.7,0-1.3-0.3-1.8-0.7c-0.5-0.5-0.7-1.1-0.7-1.8H17.5z"/>
</svg>
