<svg xmlns="http://www.w3.org/2000/svg" viewBox="0 0 25.19 25">
    <g id="Layer_2" data-name="Layer 2">
        <g id="Layer_1-2" data-name="Layer 1">
            <path class="cls-1"
                d="M25.19,13.54v9a2.36,2.36,0,0,1-2,2.41,2.8,2.8,0,0,1-.5,0H9a9.47,9.47,0,0,1-1-.15.69.69,0,0,0-.32,0,6.26,6.26,0,0,1-3.39-12,.31.31,0,0,0,.26-.36c0-2,0-4,0-6.06a2.67,2.67,0,0,1,.88-2.07C6.65,3.14,7.91,1.93,9.17.71A2.42,2.42,0,0,1,10.93,0h9.91a2.35,2.35,0,0,1,2.33,1.87c0,.14.07.22.23.26a2.32,2.32,0,0,1,1.79,2.34ZM10.75.78V4.4A1.49,1.49,0,0,1,9.14,6H5.29v6.53a6.13,6.13,0,0,1,6.2,2.8,6.15,6.15,0,0,1,0,6.84h9.19a1.61,1.61,0,0,0,1.75-1.76c0-6,0-11.92,0-17.88A1.68,1.68,0,0,0,20.69.77c-3.19,0-6.38,0-9.57,0ZM9.43,24.21H22.75a2,2,0,0,0,.42,0,1.58,1.58,0,0,0,1.24-1.64V4.43a1.58,1.58,0,0,0-1-1.48.83.83,0,0,0-.2-.05V20.38A2.62,2.62,0,0,1,23,21.7,2.34,2.34,0,0,1,20.79,23H11.12a.56.56,0,0,0-.29.06Zm-3.18-11a5.48,5.48,0,1,0,5.5,5.47A5.49,5.49,0,0,0,6.25,13.26Z" />
            <path class="cls-1"
                d="M14,8.27H7.92a.37.37,0,0,1-.32-.38.36.36,0,0,1,.3-.38,1.11,1.11,0,0,1,.26,0H20a1,1,0,0,1,.24,0,.38.38,0,0,1,0,.76H14Z" />
            <path class="cls-1"
                d="M14.06,11.66H7.92a.37.37,0,0,1-.32-.38.35.35,0,0,1,.3-.38,1.06,1.06,0,0,1,.25,0H20a.86.86,0,0,1,.23,0,.37.37,0,0,1,.32.39.37.37,0,0,1-.34.37H14.06Z" />
            <path class="cls-1"
                d="M17.33,4.87c-.92,0-1.83,0-2.74,0a.58.58,0,0,1-.41-.2.35.35,0,0,1,.23-.55,1.32,1.32,0,0,1,.28,0h5.45a.39.39,0,0,1,0,.78H17.33Z" />
            <path class="cls-1"
                d="M17.3,15.06H14.46a.38.38,0,0,1-.34-.4.36.36,0,0,1,.33-.37h5.72a.37.37,0,0,1,.34.39.36.36,0,0,1-.36.38H17.3Z" />
            <path class="cls-1"
                d="M17.3,18.46H14.61a.56.56,0,0,1-.35-.11.52.52,0,0,1-.11-.4.35.35,0,0,1,.39-.27h5.61a.38.38,0,0,1,.36.38.36.36,0,0,1-.37.39c-.32,0-.64,0-1,0Z" />
            <path class="cls-1"
                d="M6.27,14.24a4.51,4.51,0,1,0,4.51,4.5A4.5,4.5,0,0,0,6.27,14.24Zm-2.67,5a.49.49,0,0,1-.49-.5.47.47,0,0,1,.49-.47.49.49,0,0,1,.48.48A.51.51,0,0,1,3.6,19.23Zm4.19,1.46a2,2,0,0,1-1.11.48v1H6v-1a3.28,3.28,0,0,1-1-.27,3,3,0,0,1-.82-.52l.4-.81a3,3,0,0,0,.85.55,2.28,2.28,0,0,0,.88.2,1.11,1.11,0,0,0,.62-.16.46.46,0,0,0,.23-.42A.45.45,0,0,0,7,19.4a1,1,0,0,0-.35-.22,4.93,4.93,0,0,0-.59-.2,6.25,6.25,0,0,1-.82-.29,1.45,1.45,0,0,1-.55-.43,1.15,1.15,0,0,1-.23-.76,1.24,1.24,0,0,1,.4-.95A1.89,1.89,0,0,1,6,16.08v-.93h.71v.93a3.67,3.67,0,0,1,1.49.51l-.39.84A3.76,3.76,0,0,0,7,17.05a2.57,2.57,0,0,0-.71-.12,1,1,0,0,0-.54.12.4.4,0,0,0-.2.36.45.45,0,0,0,.14.35A1.12,1.12,0,0,0,6,18a5.36,5.36,0,0,0,.57.19,5.82,5.82,0,0,1,.83.3,1.51,1.51,0,0,1,.56.45,1.21,1.21,0,0,1,.22.77A1.29,1.29,0,0,1,7.79,20.69Zm1.52-1.46a.49.49,0,0,1-.48-.48.48.48,0,0,1,.47-.49.47.47,0,0,1,.49.46A.49.49,0,0,1,9.31,19.23Z" />
        </g>
    </g>
</svg>