<?xml version="1.0" encoding="utf-8"?>
<!-- Generator: Adobe Illustrator 26.3.1, SVG Export Plug-In . SVG Version: 6.00 Build 0)  -->
<svg version="1.1" id="Layer_1" xmlns="http://www.w3.org/2000/svg" xmlns:xlink="http://www.w3.org/1999/xlink" x="0px" y="0px"
	 viewBox="0 0 30 30" style="enable-background:new 0 0 30 30;" xml:space="preserve">
<style type="text/css">
	.st0{fill:#EA6D4D;}
	.st1{fill:#F1F1F1;}
</style>
<g>
	<circle class="st0" cx="15" cy="15" r="12.5"/>
	<g>
		<g>
			<path class="st1" d="M11.7,19c-0.8,0.9-1.7,1.7-2.5,2.6c-0.1,0.1-0.2,0.2-0.3,0.2c-0.2,0-0.3-0.1-0.4-0.2c-0.1-0.1-0.1-0.3,0-0.4
				c0-0.1,0.1-0.1,0.2-0.2c0.8-0.8,1.5-1.6,2.3-2.3c0-0.1,0.1-0.1,0.2-0.2c-0.1-0.1-0.1-0.1-0.2-0.2c-1.1-1.1-2.1-2.2-3.2-3.3
				c-0.3-0.3-0.3-0.5,0-0.8c1.6-1.5,3.5-2,5.6-1.3c0.1,0,0.2,0,0.3-0.1c0.7-0.7,1.4-1.4,2.1-2.2c0,0,0.1-0.1,0.2-0.2
				c-0.1-0.1-0.3-0.2-0.4-0.3c-0.6-0.6-0.6-1.6,0-2.3c0.6-0.6,1.5-0.7,2.2-0.1c0,0,0.1,0.1,0.1,0.1c1.3,1.3,2.6,2.7,3.9,4
				c0.6,0.7,0.7,1.7,0.1,2.3c-0.6,0.7-1.6,0.7-2.2,0.1c-0.1-0.1-0.2-0.2-0.3-0.4c-0.1,0.1-0.1,0.1-0.1,0.1c-0.7,0.7-1.4,1.5-2.1,2.2
				C17,16.4,17,16.5,17,16.6c0.6,2.2,0.2,4.1-1.2,5.8c-0.3,0.3-0.5,0.3-0.8,0c-1-1.1-2.1-2.1-3.1-3.2C11.8,19.1,11.8,19,11.7,19z"/>
		</g>
	</g>
</g>
</svg>
