<?xml version="1.0" encoding="utf-8"?>
<!-- Generator: Adobe Illustrator 26.4.1, SVG Export Plug-In . SVG Version: 6.00 Build 0)  -->
<svg version="1.1" id="Layer_1" xmlns="http://www.w3.org/2000/svg" xmlns:xlink="http://www.w3.org/1999/xlink" x="0px" y="0px"
	 viewBox="0 0 30 30" style="enable-background:new 0 0 30 30;" xml:space="preserve">
<style type="text/css">
	.st0{fill:#EB6E4D;}
</style>
<path class="st0" d="M6.7,25.4l7.6-7.6l0.6-0.6l-0.8-0.8l-8.1,8.1L6.7,25.4z M24,25.6l1.6-1.6L25,21.9l-2.2-0.6l-1.6,1.6l0.6,2.1
	L24,25.6z M24.3,22.5l0.3,1.2l-0.9,0.9l-1.2-0.3l-0.3-1.2l0.9-0.9L24.3,22.5z M27.2,21.8c-0.7-1.7-2.4-2.7-4.2-2.6L17.8,14l6.1-6
	l1.4-0.6c0.5-0.2,0.9-0.6,1.2-1.1l1-1.7l-2-2l-1.8,0.9c-0.5,0.3-0.9,0.7-1.1,1.2L22,6.2l-6.1,6l-5.6-5.5c0.1-1.1-0.4-2.2-1.1-3
	C8.9,3.3,8.4,3,7.9,2.8c-0.5-0.2-1-0.3-1.6-0.3H4.7l2.7,2.7l-0.1,2l-2,0.1L2.5,4.7v1.7c0,0.5,0,1.1,0.2,1.6c0.2,0.5,0.5,1,0.9,1.4
	c0.8,0.8,1.9,1.2,3,1.1l4.2,4.2l-7.6,7.6c-0.3,0.3-0.5,0.6-0.5,1c-0.1,0.3-0.1,0.7,0,1.1c0.1,0.8,0.5,1.5,1.1,2
	c0.5,0.6,1.2,0.9,2,1.1c0.3,0.1,0.7,0.1,1.1,0c0.4-0.1,0.7-0.3,1-0.5l7.6-7.6l3.9,3.9c-0.2,2.3,1.4,4.3,3.7,4.5c0.1,0,0.3,0,0.4,0
	c2.3,0,4.1-1.8,4.2-4.1c0,0,0,0,0,0C27.6,22.9,27.5,22.3,27.2,21.8z M15.9,18.5l0.6-0.6c0.4-0.3,0.5-0.8,0.4-1.3
	c-0.1-0.4-0.3-0.8-0.6-1.1l0.8-0.8l5.5,5.5h0.1c1.8-0.3,3.5,0.8,3.9,2.6c0,0.2,0.1,0.4,0.1,0.6c0,1.8-1.4,3.3-3.3,3.4
	c-0.9,0-1.8-0.4-2.4-1c-0.8-0.8-1.1-1.9-0.9-3v-0.1L15.9,18.5z M15.4,12.8l-0.8,0.8c-0.3-0.3-0.7-0.5-1.2-0.6
	c-0.5-0.1-1,0.1-1.3,0.4L11.5,14L7,9.5H6.9C6,9.7,5,9.4,4.3,8.7c-0.5-0.5-0.9-1.2-0.9-2l1.6,1.6L8,8l0.2-3.1L6.7,3.4
	c0.8,0,1.5,0.4,2,0.9C9.4,5,9.7,6,9.6,6.9V7L15.4,12.8z M13.1,13.8c0.3,0,0.7,0.2,0.9,0.4l0.5,0.5l0.3-0.1l0,0l7.9-7.9l0.6-1.5
	c0.1-0.3,0.4-0.6,0.7-0.8l1.2-0.6l1,1l-0.7,1.2c-0.2,0.3-0.5,0.6-0.8,0.7l-1.5,0.6l-7.9,7.9l-0.2,0.4l0.4,0.4c0.4,0.4,0.5,1,0.2,1.3
	l-8.8,8.9c-0.6,0.6-1.9,0.4-2.8-0.5s-1.1-2.1-0.5-2.8l8.9-8.9C12.8,13.9,13,13.8,13.1,13.8L13.1,13.8z M4.5,23.2l8.2-8.2l0.8,0.8
	L5.3,24L4.5,23.2z"/>
</svg>
