<svg id="Layer_1" data-name="Layer 1" xmlns="http://www.w3.org/2000/svg" viewBox="0 0 30 30"><defs><style>.cls-1{fill:#231f20;}</style></defs><path class="cls-1" d="M29.61,21.65V19.13l-1.46-.27a5.58,5.58,0,0,0-.57-1.38l.84-1.22-1.78-1.78-1.22.84a2.55,2.55,0,0,0-.33-.17l1.32-5H25.23V4.81h-11L11.61,2.5H2.66V4.77H.39V23.1H17.31c0,.07.07.14.11.2l-.84,1.23,1.79,1.78,1.22-.84A5.51,5.51,0,0,0,21,26l.27,1.46h2.52L24,26a5.58,5.58,0,0,0,1.38-.57l1.23.84,1.78-1.78-.84-1.22a5.84,5.84,0,0,0,.58-1.39Zm-2.23-.43a5.12,5.12,0,0,1-.84,2l-.06.07.76,1.1-.71.71-1.09-.75-.07.05a5.21,5.21,0,0,1-2,.84l-.08,0L23,26.59H22l-.24-1.3-.08,0a5.11,5.11,0,0,1-2-.84l-.07-.05-1.09.75-.72-.71.75-1.09,0-.07a5.18,5.18,0,0,1-.85-2v-.08l-1.3-.25v-1l1.3-.24v-.08a5.21,5.21,0,0,1,.85-2l.05-.07-.76-1.09.72-.71,1.09.75.07-.05a5.07,5.07,0,0,1,2-.85h.08L22,14.2h1l.23,1.3h.09a5.1,5.1,0,0,1,2,.85l.07.05,1.1-.75.71.71-.75,1.09,0,.07a5.05,5.05,0,0,1,.85,2l0,.09,1.3.24v1l-1.3.24ZM24.24,14.8,24,14.74l-.27-1.46H21.24L21,14.74a5.39,5.39,0,0,0-1.38.58l-1.22-.84-1.79,1.78.84,1.22a6.18,6.18,0,0,0-.57,1.38l-1.46.27v2.52l1.46.27c0,.09,0,.17.08.27H1.44l2.94-11.1H25.23Zm.07-4.62H23V7.08h-11L9.34,4.77H3.57V3.41h7.69l2.57,2.31H24.31ZM22.05,8v2.19H3.68l-2.38,9V5.68H9L11.57,8Z"/><path class="cls-1" d="M22.5,16.63a3.76,3.76,0,1,0,3.76,3.76A3.77,3.77,0,0,0,22.5,16.63Zm2.85,3.76a2.85,2.85,0,1,1-2.85-2.85A2.86,2.86,0,0,1,25.35,20.39Z"/><rect class="cls-1" x="5.62" y="19.94" width="0.91" height="0.91"/><rect class="cls-1" x="3.85" y="19.94" width="0.91" height="0.91"/><rect class="cls-1" x="9.16" y="19.94" width="0.91" height="0.91"/><rect class="cls-1" x="7.39" y="19.94" width="0.91" height="0.91"/></svg>