<svg id="Layer_1" data-name="Layer 1" xmlns="http://www.w3.org/2000/svg" viewBox="0 0 30 30"><defs><style>.cls-1{fill:#231f20;}</style></defs><polygon class="cls-1" points="6.7 25.41 14.27 17.84 14.86 17.26 14.09 16.5 5.94 24.65 6.7 25.41"/><path class="cls-1" d="M24,25.61,25.61,24,25,21.85l-2.16-.58-1.59,1.59L21.85,25Zm.31-3.07.33,1.22-.9.9-1.22-.33-.32-1.22.89-.89Z"/><path class="cls-1" d="M27.2,21.78A4.18,4.18,0,0,0,23,19.2L17.75,14l6.06-6,1.4-.57a2.48,2.48,0,0,0,1.22-1.06l1-1.74L25.47,2.66l-1.75.93a2.41,2.41,0,0,0-1.11,1.24L22.05,6.2l-6.07,6L10.42,6.68a3.94,3.94,0,0,0-1.15-3A3.91,3.91,0,0,0,7.9,2.77,4.05,4.05,0,0,0,6.35,2.5l-1.68,0L7.36,5.24l-.12,2-2,.12L2.55,4.67l0,1.68A4.05,4.05,0,0,0,2.77,7.9a4,4,0,0,0,.89,1.37,3.94,3.94,0,0,0,3,1.15l4.19,4.19L3.24,22.24a2.09,2.09,0,0,0-.54,1,2.5,2.5,0,0,0,0,1.06,3.65,3.65,0,0,0,1.06,2,3.65,3.65,0,0,0,2,1.06,2.5,2.5,0,0,0,1.06,0,2.09,2.09,0,0,0,1-.54l7.63-7.63,3.87,3.87a4.15,4.15,0,0,0,4.14,4.56,4.14,4.14,0,0,0,4.16-4.16A4.13,4.13,0,0,0,27.2,21.78ZM15.93,18.47l.63-.63A1.5,1.5,0,0,0,17,16.51a2.14,2.14,0,0,0-.57-1.13l.77-.77,5.5,5.49h.06a3.31,3.31,0,0,1,3.94,3.25A3.31,3.31,0,0,1,21,25.68a3.3,3.3,0,0,1-.91-3v-.06Zm-.55-5.63-.77.76A2.21,2.21,0,0,0,13.43,13a1.5,1.5,0,0,0-1.33.39l-.63.63L7,9.53H6.93a3.13,3.13,0,0,1-2.67-.87,3.08,3.08,0,0,1-.9-2L4.91,8.23,8,8l.19-3.13L6.68,3.36a3.08,3.08,0,0,1,2,.9,3.13,3.13,0,0,1,.87,2.67V7Zm-2.23,1a1.34,1.34,0,0,1,.89.42l.46.46.3-.12h0l7.91-7.89.65-1.54a1.51,1.51,0,0,1,.72-.81l1.19-.64,1,1-.66,1.18a1.61,1.61,0,0,1-.8.7l-1.53.62-7.9,7.85-.17.39.42.42c.44.44.55,1,.25,1.34L7.09,26.1c-.63.64-1.87.42-2.77-.48s-1.12-2.14-.48-2.77L12.7,14A.63.63,0,0,1,13.15,13.81Z"/><rect class="cls-1" x="3.22" y="19" width="11.53" height="1.08" transform="translate(-11.19 12.08) rotate(-45.01)"/></svg>