<?xml version="1.0" encoding="utf-8"?>
<!-- Generator: Adobe Illustrator 25.3.1, SVG Export Plug-In . SVG Version: 6.00 Build 0)  -->
<svg version="1.1" id="Layer_1" xmlns="http://www.w3.org/2000/svg" xmlns:xlink="http://www.w3.org/1999/xlink" x="0px" y="0px"
	 viewBox="0 0 30 30" style="enable-background:new 0 0 30 30;" xml:space="preserve">
<style type="text/css">
	.st0{fill:#424143;}
</style>
<g>
	<rect x="13" y="17" class="st0" width="4" height="2.6"/>
	<polygon class="st0" points="10.4,10.4 10.4,19.6 11.7,19.6 11.7,15.7 18.3,15.7 18.3,19.6 19.6,19.6 19.6,12.2 17.8,10.4 	"/>
	<path class="st0" d="M21.7,2.5H8.3c-3.3,0-6,2.7-6,6v13c0,3.3,2.7,6,6,6h13.4c3.3,0,6-2.7,6-6v-13C27.7,5.2,25,2.5,21.7,2.5z
		 M20.9,20.3c0,0.4-0.3,0.7-0.7,0.7H9.7c-0.4,0-0.7-0.3-0.7-0.7V9.7c0-0.4,0.3-0.7,0.7-0.7h8.6l2.6,2.6V20.3z"/>
</g>
</svg>
