
<?xml version="1.0" encoding="utf-8"?>
<!-- Generator: Adobe Illustrator 26.3.1, SVG Export Plug-In . SVG Version: 6.00 Build 0)  -->
<svg version="1.1" id="Layer_1" xmlns="http://www.w3.org/2000/svg" xmlns:xlink="http://www.w3.org/1999/xlink" x="0px" y="0px"
	 viewBox="0 0 30 30" style="enable-background:new 0 0 30 30;" xml:space="preserve">
<style type="text/css">
	.st0{fill:#F8AB42;}
	.st1{fill:#FFFFFF;}
</style>
<g>
	<path class="st0" d="M15,27.5C8.1,27.5,2.5,21.9,2.5,15c0-6.9,5.6-12.5,12.6-12.5c6.8,0,12.4,5.6,12.4,12.4
		C27.5,21.9,21.9,27.5,15,27.5"/>
	<path class="st1" d="M19.1,15.9c-0.4,0.4-0.8,0.8-1.1,1.1c-0.3,0.2-0.4,0.5-0.3,0.9c0.2,0.6,1,0.9,1.4,0.5c0.9-0.9,1.9-1.8,2.8-2.8
		c0.3-0.3,0.3-0.8,0-1.2c-0.9-0.9-1.8-1.8-2.7-2.7c-0.4-0.4-0.9-0.3-1.3,0c-0.3,0.3-0.3,0.9,0,1.2c0.4,0.4,0.7,0.7,1.2,1.2L20,15
		L19.1,15.9z"/>
	<path class="st1" d="M10.9,15.9c0.4,0.4,0.8,0.8,1.1,1.1c0.3,0.2,0.4,0.5,0.3,0.9c-0.2,0.6-1,0.9-1.4,0.5c-0.9-0.9-1.9-1.8-2.8-2.8
		c-0.3-0.3-0.3-0.8,0-1.2c0.9-0.9,1.8-1.8,2.7-2.7c0.4-0.4,0.9-0.3,1.3,0c0.3,0.3,0.3,0.9,0,1.2c-0.4,0.4-0.7,0.7-1.2,1.2L10,15
		L10.9,15.9z"/>
</g>
</svg>