<?xml version="1.0" encoding="utf-8"?>
<!-- Generator: Adobe Illustrator 26.3.1, SVG Export Plug-In . SVG Version: 6.00 Build 0)  -->
<svg version="1.1" id="Layer_1" xmlns="http://www.w3.org/2000/svg" xmlns:xlink="http://www.w3.org/1999/xlink" x="0px" y="0px"
	 viewBox="0 0 30 30" style="enable-background:new 0 0 30 30;" xml:space="preserve">
<style type="text/css">
	.st0{fill:#424142;}
</style>
<path class="st0" d="M13.7,27.5l-1.4,0c-1.7-0.1-3.1-0.6-4.4-1.3c-3.3-1.9-5.1-4.8-5.5-8.6c-0.2-1.7,0.1-3.4,0.8-5
	c1.5-3.3,4-5.4,7.5-6.2c0.7-0.2,1.4-0.3,2.3-0.2l0.7,0v10h10.1l-0.1,1.2c0,0.3-0.1,0.7-0.1,1c-0.3,2.1-1.2,4-2.5,5.5
	c-1.6,1.9-3.7,3-6.1,3.5c-0.3,0-0.5,0.1-0.8,0.1L13.7,27.5z M12.4,7.6c-0.4,0-0.8,0.1-1.2,0.2C8,8.5,5.9,10.2,4.6,13.1
	C4,14.5,3.7,16,3.9,17.5c0.3,3.3,1.8,5.8,4.8,7.5c1.1,0.6,2.4,1,3.7,1.1l0.2,0L14,26c0.3,0,0.5-0.1,0.7-0.1c2.1-0.4,3.9-1.4,5.3-3
	c1.2-1.4,1.9-3,2.2-4.8c0-0.2,0-0.4,0.1-0.6h-9.9V7.6z M27.6,14.3c-0.1-0.5-0.1-1-0.2-1.5c-0.5-2.9-1.9-5.3-4.1-7.2
	c-2-1.8-4.3-2.8-7-3.1c-0.2,0-0.4,0-0.5-0.1c-0.3,0-0.5,0-0.8,0c0,0.1,0,0.2,0,0.3c0,4,0,7.9,0,11.9c0,0.1,0,0.2,0,0.4
	c0.2,0,0.3,0,0.4,0c4,0,7.9,0,11.9,0c0.1,0,0.2,0,0.3,0C27.6,14.9,27.6,14.6,27.6,14.3z M19.7,8.8c0.2,0.1,0.5,0.2,0.9,0.3
	c0.4,0.1,0.7,0.2,1,0.3c0.3,0.1,0.5,0.3,0.7,0.5s0.3,0.5,0.3,0.9c0,0.5-0.2,0.9-0.5,1.2c-0.3,0.3-0.8,0.5-1.3,0.6v1.2h-0.9v-1.2
	c-0.4-0.1-0.8-0.2-1.1-0.3c-0.4-0.2-0.7-0.3-0.9-0.6l0.5-1.1c0.3,0.3,0.6,0.5,1,0.6c0.4,0.2,0.7,0.2,1,0.2c0.3,0,0.5,0,0.6-0.1
	c0.1-0.1,0.2-0.2,0.2-0.4c0-0.1-0.1-0.3-0.2-0.4c-0.1-0.1-0.2-0.2-0.4-0.2s-0.4-0.1-0.6-0.2c-0.4-0.1-0.7-0.2-1-0.3
	c-0.3-0.1-0.5-0.3-0.6-0.5C18.1,9.1,18,8.8,18,8.5c0-0.4,0.2-0.8,0.5-1.1c0.3-0.3,0.7-0.5,1.3-0.6V5.7h0.9v1.1
	c0.3,0,0.6,0.1,0.9,0.2c0.3,0.1,0.6,0.2,0.8,0.4L22,8.5C21.7,8.3,21.4,8.1,21,8c-0.3-0.1-0.6-0.2-0.9-0.2c-0.2,0-0.4,0-0.5,0.1
	c-0.1,0.1-0.2,0.2-0.2,0.4C19.4,8.6,19.5,8.7,19.7,8.8z"/>
</svg>
