<svg id="Layer_1" data-name="Layer 1" xmlns="http://www.w3.org/2000/svg" viewBox="0 0 30 30"><defs><style>.cls-1{fill:#010101;}.cls-2{fill:#ec6e4e;}</style></defs><path class="cls-1" d="M18.09,16.43v10.5a1,1,0,0,1-1,1H2.53a1,1,0,0,1-1-1V8a1,1,0,0,1,1-1H5.69V7.2a.49.49,0,0,0,.49.49h7.14a8.13,8.13,0,0,1,.54-2.09.51.51,0,0,0-.44-.27H12a.79.79,0,0,1-.74-.52,1.55,1.55,0,0,0-1.46-1,1.53,1.53,0,0,0-1.45,1,.79.79,0,0,1-.75.52H6.18a.49.49,0,0,0-.49.49v.31H2.53A1.86,1.86,0,0,0,.67,8V26.93a1.86,1.86,0,0,0,1.86,1.86H17.08a1.87,1.87,0,0,0,1.86-1.86V16.78A8.93,8.93,0,0,1,18.09,16.43ZM9.8,4.57a.55.55,0,0,1,0,1.1.55.55,0,1,1,0-1.1Z"/><path class="cls-1" d="M5.18,12.62a.4.4,0,0,1-.29-.12L3.77,11.38a.4.4,0,1,1,.57-.57l.84.83,2-2a.41.41,0,0,1,.58,0,.43.43,0,0,1,0,.58L5.46,12.5A.39.39,0,0,1,5.18,12.62Z"/><path class="cls-1" d="M5.18,16.88a.4.4,0,0,1-.29-.12L3.77,15.64a.4.4,0,1,1,.57-.57l.84.83,2-2a.41.41,0,0,1,.58,0,.43.43,0,0,1,0,.58l-2.3,2.29A.39.39,0,0,1,5.18,16.88Z"/><path class="cls-1" d="M5.18,21.14A.4.4,0,0,1,4.89,21L3.77,19.9a.4.4,0,1,1,.57-.57l.84.83,2-2a.41.41,0,0,1,.58,0,.43.43,0,0,1,0,.58L5.46,21A.39.39,0,0,1,5.18,21.14Z"/><path class="cls-1" d="M5.18,25.4a.4.4,0,0,1-.29-.12L3.77,24.16a.4.4,0,1,1,.57-.57l.84.83,2-2a.41.41,0,0,1,.58,0,.43.43,0,0,1,0,.58l-2.3,2.29A.39.39,0,0,1,5.18,25.4Z"/><path class="cls-1" d="M13.71,11.48h-4a.41.41,0,0,1-.4-.41.4.4,0,0,1,.4-.41h3.79A7.66,7.66,0,0,0,13.71,11.48Z"/><path class="cls-1" d="M15.55,15.73H9.69a.41.41,0,0,1,0-.81h5.86a.41.41,0,1,1,0,.81Z"/><path class="cls-1" d="M15.55,20H9.69a.41.41,0,0,1,0-.81h5.86a.41.41,0,1,1,0,.81Z"/><path class="cls-1" d="M15.55,24.25H9.69a.41.41,0,0,1,0-.81h5.86a.41.41,0,1,1,0,.81Z"/><path class="cls-2" d="M21.18,1.21,21,1.26a7.53,7.53,0,0,0,.13,15c.24,0,.47,0,.7,0A7.56,7.56,0,0,0,29,10.9c.14-.5.21-1,.32-1.54V8.11c-.09-.45-.15-.91-.27-1.35a7.53,7.53,0,0,0-6.45-5.5h-.05l-.13,0Z"/><ellipse class="cls-2" cx="21.79" cy="8.73" rx="7.53" ry="7.5"/></svg>