<svg xmlns="http://www.w3.org/2000/svg"  viewBox="0 0 27.3 25">
    <g id="Layer_2" data-name="Layer 2">
        <g id="Layer_1-2" data-name="Layer 1">
            <path class="cls-1"
                d="M19.06.69A5.43,5.43,0,0,0,14.58.32a10.25,10.25,0,0,1-6.81,0A5.46,5.46,0,0,0,3.18.76,6.69,6.69,0,0,0,.87,3.12a6.48,6.48,0,0,0-.26,6,36,36,0,0,1,2.1,5.63L5.1,23.45A2,2,0,0,0,6.76,25a2.11,2.11,0,0,0,2.09-.85,2,2,0,0,0,.35-.93L10,16.7a1.17,1.17,0,0,1,1.2-1.07h0a1.17,1.17,0,0,1,1.2,1.07l.8,6.49a2.15,2.15,0,0,0,.3.87,2.12,2.12,0,0,0,1.77.94l.33,0a2.07,2.07,0,0,0,1.7-1.53L17.71,22a9,9,0,0,1-.85-1.06l-.62,2.26a1,1,0,0,1-.81.73,1,1,0,0,1-1.14-.83l-.8-6.5a2.26,2.26,0,0,0-2.29-2h0a2.27,2.27,0,0,0-2.29,2l-.79,6.49a1,1,0,0,1-.16.43,1,1,0,0,1-1,.4,1,1,0,0,1-.79-.73L3.77,14.44A37,37,0,0,0,1.61,8.65,5.4,5.4,0,0,1,3.75,1.71,4.28,4.28,0,0,1,7.4,1.37a11.41,11.41,0,0,0,7.55,0,4.29,4.29,0,0,1,3.56.3,5.43,5.43,0,0,1,2.76,4.73v0a5.49,5.49,0,0,1-.53,2.29,32.09,32.09,0,0,0-1.43,3.53,8.55,8.55,0,0,0,1.42-.71c.31-.82.64-1.6,1-2.34A6.52,6.52,0,0,0,19.06.69Z" />
            <path class="cls-1"
                d="M21.27,25a.33.33,0,0,1-.15,0c-.23-.09-5.89-2.39-5.89-7.51V12.93a.36.36,0,0,1,.13-.29.42.42,0,0,1,.28-.12A9.82,9.82,0,0,0,21,10.71a.42.42,0,0,1,.48,0,9.68,9.68,0,0,0,5.35,1.81.39.39,0,0,1,.31.12.43.43,0,0,1,.12.29v4.53c0,5.13-5.66,7.43-5.89,7.52l-.14,0ZM16.15,13.42v4c0,4,4.26,6.17,5.12,6.56.85-.39,5.12-2.52,5.12-6.56v-4a10.34,10.34,0,0,1-5.12-1.73,10.37,10.37,0,0,1-5.12,1.73Zm6.14,8.11h-2a.43.43,0,0,1-.44-.44v-2h-2a.42.42,0,0,1-.44-.43V16.58a.43.43,0,0,1,.44-.43h2v-2a.43.43,0,0,1,.44-.43h2a.43.43,0,0,1,.44.43v2h2a.43.43,0,0,1,.44.43v2.05a.42.42,0,0,1-.44.43h-2v2.05a.43.43,0,0,1-.44.42Zm-1.61-.86h1.19v-2a.43.43,0,0,1,.44-.44h2V17H22.29a.43.43,0,0,1-.44-.43v-2H20.66v2a.43.43,0,0,1-.43.44h-2v1.19h2.05a.43.43,0,0,1,.43.44Z" />
        </g>
    </g>
</svg>