<svg id="Layer_1" data-name="Layer 1" xmlns="http://www.w3.org/2000/svg" viewBox="0 0 30 30"><defs><style>.cls-1{fill:#231f20;}</style></defs><path class="cls-1" d="M18.24,25.58a.81.81,0,0,0-.66-.1c-.21.05-.43.1-.64.13a.91.91,0,0,0-.56.37.82.82,0,0,0-.14.66.84.84,0,0,0,.35.55.86.86,0,0,0,.51.16h.16l.74-.16a.88.88,0,0,0,.54-.4.85.85,0,0,0,.1-.66A.88.88,0,0,0,18.24,25.58Z"/><path class="cls-1" d="M24.93,11.12c.08.2.16.41.23.61a.88.88,0,0,0,.83.6.9.9,0,0,0,.28,0,.87.87,0,0,0,.55-1.11c-.08-.24-.16-.48-.26-.71a.88.88,0,1,0-1.63.65Z"/><path class="cls-1" d="M21.57,23.88h0a.89.89,0,0,0-.66.13l-.56.35A.87.87,0,0,0,20,25.55a.7.7,0,0,0,.26.28.83.83,0,0,0,.5.16,1,1,0,0,0,.44-.11l.65-.4a.91.91,0,0,0,.37-.56.86.86,0,0,0-.13-.66A.9.9,0,0,0,21.57,23.88Z"/><path class="cls-1" d="M27.45,14.61a.89.89,0,0,0-.91-.84h0a.88.88,0,0,0-.85.91c0,.21,0,.43,0,.65a.87.87,0,0,0,.37.74.92.92,0,0,0,.49.16h0a.86.86,0,0,0,.6-.25.84.84,0,0,0,.27-.61C27.46,15.12,27.46,14.86,27.45,14.61Z"/><path class="cls-1" d="M23.56,21.52l-.41.51a.88.88,0,0,0,.1,1.24l.06.05a1,1,0,0,0,.51.16.88.88,0,0,0,.66-.31q.24-.29.48-.6a.88.88,0,0,0,.17-.65.91.91,0,0,0-.35-.58A.9.9,0,0,0,23.56,21.52Z"/><path class="cls-1" d="M26.31,17.71a.88.88,0,0,0-1.1.57c-.06.21-.13.41-.21.62a.89.89,0,0,0,.31,1l.2.1a.81.81,0,0,0,.31.06.94.94,0,0,0,.36-.08.92.92,0,0,0,.46-.49c.09-.23.17-.47.25-.71a.87.87,0,0,0-.58-1.1Z"/><path class="cls-1" d="M13.1,25.62a10.59,10.59,0,0,1-2.63-.83l-.61-.31a11.69,11.69,0,0,1-1-.64A10.7,10.7,0,0,1,20.93,6.19l.12.08-.87,1.25a.56.56,0,0,0-.07.13L20,7.93l.27-.1,3.5-.31a.44.44,0,0,0,.34-.19h0A.45.45,0,0,0,24.18,7l-.92-3.32a.39.39,0,0,0-.05-.13l-.16-.27-.1.29-.9,1.3-.11-.07A12.41,12.41,0,0,0,15,2.64a12.91,12.91,0,0,0-2.15.18c-.31.06-.63.12-.95.2A12.4,12.4,0,0,0,5,7.62l-.21.29c-.09.13-.18.26-.26.39a12.4,12.4,0,0,0-2,7.33c0,.26,0,.52,0,.79s.08.55.12.8a12.33,12.33,0,0,0,3.48,6.7,12.08,12.08,0,0,0,1.62,1.35,12.28,12.28,0,0,0,5,2.08H13a.88.88,0,0,0,.15-1.74Z"/><path class="cls-1" d="M14.38,7.05a.68.68,0,0,0-.69.68v8.08l7.39,3.82a.67.67,0,0,0,.31.07.76.76,0,0,0,.21,0,.72.72,0,0,0,.41-.33.7.7,0,0,0,0-.53.65.65,0,0,0-.34-.39L15.06,15V7.73A.67.67,0,0,0,14.38,7.05Z"/></svg>