<?xml version="1.0" encoding="utf-8"?>
<!-- Generator: Adobe Illustrator 26.3.1, SVG Export Plug-In . SVG Version: 6.00 Build 0)  -->
<svg version="1.1" id="Layer_1" xmlns="http://www.w3.org/2000/svg" xmlns:xlink="http://www.w3.org/1999/xlink" x="0px" y="0px"
	 viewBox="0 0 30 30" style="enable-background:new 0 0 30 30;" xml:space="preserve">
<style type="text/css">
	.st0{fill:#434142;}
</style>
<g>
	<g>
		<path class="st0" d="M5.4,27.5c-0.5-0.1-0.9-0.4-1.1-0.8c-0.1-0.3-0.2-0.5-0.2-0.8c0-3.6,0-7.1,0-10.7c0-1,0.7-1.7,1.7-1.7
			c3,0,6,0,8.9,0c0.1,0,0.2,0,0.3,0c0-0.1,0-0.2,0-0.3c0-1.7,0-3.4,0-5.1c0-2.3,1.1-4,3.2-5c2.4-1.2,5.4-0.3,6.9,2
			c0.6,0.9,0.9,1.9,0.9,2.9c0,1.3,0,2.6,0,4c0,1.1-1,1.9-2.1,1.5c-0.6-0.2-1-0.8-1-1.5c0-1.2,0-2.5,0-3.7c0-1-0.4-1.7-1.3-2.2
			c-1.3-0.7-3.1,0.2-3.3,1.7c0,0.2,0,0.5,0,0.7c0,1.6,0,3.2,0,4.9c0,0.1,0,0.2,0,0.3c0.5,0,1,0,1.5,0c0.4,0,0.7,0.1,1,0.3
			c0.4,0.3,0.6,0.8,0.6,1.3c0,1.5,0,3,0,4.5c0,2,0,4,0,6c0,1.2-0.3,1.5-1.3,1.9C15.1,27.5,10.2,27.5,5.4,27.5z M15,19.7
			c0-0.1,0-0.2,0-0.4c-0.2-1.7-2.3-2.6-3.7-1.6c-1.5,1.1-1.3,3.2,0.4,4c0.1,0.1,0.2,0.1,0.2,0.3c0,0.5,0,1,0,1.4
			c0,0.5,0.3,0.9,0.8,0.9c0.5,0,0.8-0.4,0.8-0.9c0-0.5,0-0.9,0-1.4c0-0.2,0.1-0.2,0.2-0.3C14.5,21.4,14.9,20.7,15,19.7z"/>
	</g>
</g>
</svg>
