<?xml version="1.0" encoding="utf-8"?>
<!-- Generator: Adobe Illustrator 26.3.1, SVG Export Plug-In . SVG Version: 6.00 Build 0)  -->
<svg version="1.1" id="Layer_1" xmlns="http://www.w3.org/2000/svg" xmlns:xlink="http://www.w3.org/1999/xlink" x="0px" y="0px"
	 viewBox="0 0 30 30" style="enable-background:new 0 0 30 30;" xml:space="preserve">
<style type="text/css">
	.st0{fill:#FFFFFF;}
	.st1{fill:#EA6D4D;}
</style>
<g>
	<circle class="st0" cx="15" cy="15" r="12.5"/>
	<g>
		<g>
			<path class="st1" d="M11.5,19.1c-0.6,0.6-1.3,1.3-1.9,1.9c-0.3,0.3-0.6,0.6-0.8,0.8c-0.1,0.1-0.4,0.2-0.5,0.1
				c-0.2-0.1-0.2-0.3-0.2-0.4c0-0.1,0.1-0.2,0.2-0.3c0.8-0.8,1.6-1.6,2.5-2.5c0.1-0.1,0.1-0.1,0.2-0.2c-0.1-0.1-0.1-0.1-0.2-0.2
				c-1.1-1.1-2.2-2.2-3.4-3.4c-0.3-0.3-0.3-0.5,0-0.8c1.7-1.5,3.7-2,5.9-1.4c0.1,0,0.2,0.1,0.3,0c0.8-0.8,1.6-1.6,2.4-2.4
				c0,0,0,0,0.1-0.1c-0.1-0.1-0.2-0.1-0.3-0.2c-0.7-0.7-0.7-1.7,0-2.4c0.7-0.7,1.7-0.7,2.4,0c0.6,0.6,1.2,1.2,1.8,1.8
				c0.8,0.8,1.6,1.6,2.4,2.4c0.7,0.8,0.7,1.9-0.1,2.5c-0.6,0.5-1.6,0.5-2.2,0c-0.1-0.1-0.2-0.2-0.3-0.4c-0.1,0.1-0.1,0.1-0.2,0.1
				c-0.8,0.8-1.5,1.5-2.3,2.3c-0.1,0.1-0.1,0.2-0.1,0.3c0.6,2.2,0.2,4.2-1.3,5.9c-0.3,0.3-0.5,0.3-0.8,0c-1.1-1.1-2.2-2.2-3.3-3.3
				C11.6,19.2,11.6,19.2,11.5,19.1z M15.4,21.8c0.1-0.1,0.1-0.2,0.2-0.3c1-1.5,1.3-3.1,0.6-4.9c-0.1-0.2-0.1-0.4,0.1-0.6
				c1-1,1.9-1.9,2.9-2.9c0.2-0.2,0.5-0.2,0.7,0c0.2,0.2,0.3,0.3,0.5,0.5c0.4,0.4,0.9,0.4,1.2,0c0.3-0.3,0.3-0.9,0-1.2
				c-1.4-1.4-2.8-2.8-4.2-4.2c-0.4-0.4-0.9-0.4-1.2,0c-0.3,0.3-0.3,0.9,0,1.2c0.2,0.2,0.4,0.4,0.5,0.6c0.2,0.2,0.2,0.4,0,0.7
				c-1,1-2,2-3,3c-0.1,0.1-0.3,0.2-0.5,0.1c-0.1,0-0.1-0.1-0.2-0.1c-1.8-0.6-3.4-0.3-4.9,0.8c-0.1,0-0.1,0.1-0.1,0.1
				C10.6,17,13,19.4,15.4,21.8z"/>
		</g>
	</g>
</g>
</svg>
