 <svg xmlns="http://www.w3.org/2000/svg"  viewBox="0 0 35.21 25">
    <g id="Layer_2" data-name="Layer 2">
        <g id="Layer_1-2" data-name="Layer 1">
            <path class="cls-1"
                d="M0,19.1c.08-.36.15-.73.25-1.09a7,7,0,0,1,10.06-4.25l.38.21a9.71,9.71,0,0,1,13.58-.25,7.36,7.36,0,0,1,3.18-1.19,7,7,0,0,1,7.69,6,27.05,27.05,0,0,1,.06,2.85A1.42,1.42,0,0,1,34,22.69a3.87,3.87,0,0,1-.48,0H27.19c0,.12,0,.21,0,.31a1.87,1.87,0,0,1-2,2H10.22A1.94,1.94,0,0,1,8,23.15H7.65c-1.93,0-3.85,0-5.78,0A1.71,1.71,0,0,1,0,22Zm17.61,4.75h7.56c.6,0,.86-.25.87-.85,0-.35,0-.69,0-1a12.73,12.73,0,0,0-.28-3.59A8.43,8.43,0,0,0,15,12.62a8.3,8.3,0,0,0-5.8,7.43c0,1,0,1.93,0,2.89,0,.66.24.91.91.91Zm9.57-2.29.19,0h6.22c.26,0,.49-.06.48-.36a18.54,18.54,0,0,0-.16-3.08,5.75,5.75,0,0,0-6.5-4.46,5.52,5.52,0,0,0-2.35.89C26.83,17.21,27,17.61,27.18,21.56ZM9.94,14.88c-.1-.06-.17-.12-.25-.16a5.82,5.82,0,0,0-8.37,3.76,17.18,17.18,0,0,0-.18,3c0,.49.07.55.56.55h6l.39,0A10,10,0,0,1,9.94,14.88Z" />
            <path class="cls-1"
                d="M17.42,10.4a5.2,5.2,0,1,1,5.23-5.21A5.21,5.21,0,0,1,17.42,10.4Zm0-1.13a4.1,4.1,0,0,0,4.11-4.06,4.12,4.12,0,0,0-8.23,0A4.12,4.12,0,0,0,17.41,9.27Z" />
            <path class="cls-1"
                d="M32.33,7.63a4.09,4.09,0,0,1-8.17,0,4.09,4.09,0,0,1,8.17,0Zm-4.08,2.89a2.91,2.91,0,1,0-2.95-2.9A2.93,2.93,0,0,0,28.25,10.52Z" />
            <path class="cls-1"
                d="M2.88,7.89A4.09,4.09,0,1,1,7,11.94,4.09,4.09,0,0,1,2.88,7.89ZM6.94,10.8A2.91,2.91,0,1,0,4,7.87,2.92,2.92,0,0,0,6.94,10.8Z" />
        </g>
    </g>
</svg>