 <svg xmlns="http://www.w3.org/2000/svg" viewBox="0 0 32.06 25">
    <g id="Layer_2" data-name="Layer 2">
        <g id="Layer_1-2" data-name="Layer 1">
            <path class="cls-1"
                d="M26.87,11.78h-10a.55.55,0,0,0-.54.55.55.55,0,0,0,.54.55h10a.55.55,0,0,0,.39-.94A.51.51,0,0,0,26.87,11.78Z" />
            <path class="cls-1"
                d="M16.88,18.63h10a.56.56,0,0,0,.55-.56.59.59,0,0,0-.16-.39.55.55,0,0,0-.39-.16h-10a.56.56,0,0,0,0,1.11Z" />
            <path class="cls-1"
                d="M21.11,6H16.88a.55.55,0,0,0-.39.16.54.54,0,0,0-.16.39h0a.55.55,0,0,0,.55.55h4.21a.57.57,0,0,0,.4-.15.56.56,0,0,0,.17-.4.52.52,0,0,0-.17-.39A.55.55,0,0,0,21.11,6Z" />
            <path class="cls-1"
                d="M0,2.19V22.81A2.19,2.19,0,0,0,2.19,25H29.87a2.2,2.2,0,0,0,2.19-2.19V2.19A2.2,2.2,0,0,0,29.87,0H2.19A2.19,2.19,0,0,0,0,2.19Zm1.1,0A1.09,1.09,0,0,1,2.19,1.1H29.87A1.08,1.08,0,0,1,31,2.19V22.81a1.1,1.1,0,0,1-1.09,1.09H2.19a1.07,1.07,0,0,1-.77-.32,1.12,1.12,0,0,1-.32-.77Z" />
            <path class="cls-1"
                d="M11.11,12.73a3,3,0,1,0-3.53,0,4.72,4.72,0,0,0-3,4.38v.48h9.46v-.48A4.73,4.73,0,0,0,11.11,12.73Zm-1.76-.35a2,2,0,1,1,2-2A2,2,0,0,1,9.35,12.38ZM5.59,16.64a3.78,3.78,0,0,1,7.51,0Z" />
        </g>
    </g>
</svg>