<?xml version="1.0" encoding="utf-8"?>
<!-- Generator: Adobe Illustrator 26.4.1, SVG Export Plug-In . SVG Version: 6.00 Build 0)  -->
<svg version="1.1" id="Layer_1" xmlns="http://www.w3.org/2000/svg" xmlns:xlink="http://www.w3.org/1999/xlink" x="0px" y="0px"
	 viewBox="0 0 30 30" style="enable-background:new 0 0 30 30;" xml:space="preserve">
<style type="text/css">
	.st0{fill:#00A54F;}
</style>
<path class="st0" d="M12.7,12.7c-0.3-0.3-0.5-0.7-0.5-1.1c0-0.4,0.2-0.8,0.5-1.1c0.3-0.3,0.7-0.5,1.1-0.5c0,0,0,0,0,0
	c0.9,0,1.6,0.7,1.6,1.6c0,0.4-0.2,0.8-0.5,1.1c-0.3,0.3-0.7,0.5-1.1,0.5c0,0,0,0,0,0C13.4,13.1,13,13,12.7,12.7z M18.9,16.2
	c0.4,0.4,0.7,1,0.7,1.6c0,1.2-1,2.2-2.2,2.2c0,0,0,0,0,0c-0.6,0-1.2-0.2-1.6-0.7c-0.4-0.4-0.7-1-0.7-1.6c0-1.2,1-2.2,2.3-2.2
	c0,0,0,0,0,0C17.9,15.5,18.5,15.8,18.9,16.2z M19,17.9c0-0.3-0.1-0.5-0.4-0.6c-0.1,0-0.2,0-0.2,0c-0.1,0-0.3,0-0.4,0h-0.1l0-0.2
	c0-0.1,0-0.3,0-0.4c0-0.3-0.2-0.5-0.5-0.5c0,0,0,0,0,0c-0.3,0-0.5,0.2-0.5,0.5c0,0.1,0,0.2,0,0.4l0,0.3l-0.4,0c-0.1,0-0.2,0-0.3,0
	c-0.3,0-0.5,0.2-0.5,0.5c0,0.3,0.2,0.5,0.5,0.5c0.1,0,0.2,0,0.4,0l0.3,0l0,0.1c0,0.2,0,0.3,0,0.5c0,0.3,0.2,0.5,0.5,0.5c0,0,0,0,0,0
	c0.3,0,0.5-0.2,0.5-0.5c0-0.1,0-0.1,0-0.2v-0.5l0.2,0c0.1,0,0.3,0,0.4,0C18.7,18.3,18.9,18.1,19,17.9z M14.5,15.5
	c-0.4,0-0.8,0-1.2,0c-0.9,0-1.7,0.4-2.3,1.2c-0.4,0.6-0.6,1.2-0.6,2.1h3.7c-0.3-1.2-0.1-2.3,0.8-3.3c-0.1,0-0.1,0-0.2,0L14.5,15.5z
	 M27.5,7.5v15c0,2.8-2.2,5-5,5h-15c-2.8,0-5-2.2-5-5v-15c0-2.8,2.2-5,5-5h15C25.3,2.5,27.5,4.7,27.5,7.5z M11.2,11.5
	c0,0.7,0.3,1.4,0.8,1.9c0.5,0.5,1.2,0.8,1.9,0.8c0,0,0,0,0,0c0.7,0,1.4-0.3,1.9-0.8c0.5-0.5,0.8-1.2,0.8-1.9c0-1.5-1.2-2.7-2.7-2.7
	c0,0,0,0,0,0c-0.7,0-1.4,0.3-1.9,0.8C11.5,10.2,11.2,10.8,11.2,11.5z M20.5,17c-0.3-1.2-1-2-2.2-2.4c-0.7-0.3-1.5-0.2-2.3,0.1
	c-0.1,0-0.1,0-0.2,0c-0.4-0.2-0.8-0.3-1.1-0.3c-0.3,0-0.7,0-1,0l-0.4,0c-0.6,0-1.1,0.1-1.6,0.3c-0.9,0.4-1.6,1-2.1,1.9
	c-0.3,0.5-0.4,1.1-0.4,1.7c0,0.3,0,0.7,0,1c0,0.3,0.2,0.5,0.4,0.5c0.1,0,0.1,0,0.2,0l1.2,0c1.2,0,2.3,0,3.5,0c0,0,0.1,0,0.1,0
	c0.5,0.6,1.1,1,1.8,1.1c0.1,0,0.2,0,0.4,0.1l0.2,0l0.5,0l0,0c0.9-0.1,1.6-0.5,2.2-1.1C20.5,19.1,20.8,18.1,20.5,17z"/>
</svg>
