 <svg xmlns="http://www.w3.org/2000/svg" viewBox="0 0 29.4 24.99">
    <g id="Layer_2" data-name="Layer 2">
        <g id="Layer_1-2" data-name="Layer 1">
            <path class="cls-1"
                d="M29.4,21.15a5,5,0,0,1-.39,2,3.55,3.55,0,0,1-.23.43A3.14,3.14,0,0,1,26,25h-22a4.63,4.63,0,0,1-2.3-.58A3,3,0,0,1,0,21.59V6A3.33,3.33,0,0,1,2.6,2.71a3.76,3.76,0,0,1,.88-.09c1.36,0,2.72,0,4.08,0h.28a7.26,7.26,0,0,1,.33-1.14A2.67,2.67,0,0,1,11.24.05a23,23,0,0,0,6.88,0A2.64,2.64,0,0,1,21.38,2c.05.2.06.41.1.66h4.15c1.72,0,3.67,1.06,3.72,2.78,0,0,0,0,0,.08ZM14.69,23.51h11.2a1.8,1.8,0,0,0,2-1.74A15.4,15.4,0,0,0,28,20V6.12a1.92,1.92,0,0,0-.75-1.66,2.11,2.11,0,0,0-1.32-.36c-1.69,0-3.37,0-5.06,0A.77.77,0,0,1,20,3.27c0-.15,0-.31,0-.46.07-.81-.32-1.38-1.37-1.37-2.42,0-4.85,0-7.28,0-.3,0-.6,0-.89,0a1,1,0,0,0-1,.93,6.54,6.54,0,0,0,0,.77c0,.66-.29.94-.94.94H3.4A1.8,1.8,0,0,0,1.49,6c0,4.58,0,11,0,15.57a2.23,2.23,0,0,0,.19.92,1.83,1.83,0,0,0,1.81,1Z" />
            <path class="cls-1"
                d="M14.7,6.93a6.88,6.88,0,1,1-6.88,6.86A6.91,6.91,0,0,1,14.7,6.93Zm5.36,6.94A5.36,5.36,0,1,0,14.7,19.2,5.35,5.35,0,0,0,20.06,13.87Z" />
            <path class="cls-1"
                d="M24.65,8.71a1.36,1.36,0,0,1,0-2.72A1.35,1.35,0,0,1,26,7.33,1.37,1.37,0,0,1,24.65,8.71Z" />
        </g>
    </g>
</svg>