 <svg xmlns="http://www.w3.org/2000/svg" viewBox="0 0 29.42 25">
    <g id="Layer_2" data-name="Layer 2">
        <g id="Layer_1-2" data-name="Layer 1">
            <path class="cls-1"
                d="M8.41,9.26a.9.9,0,0,0,.91-.91.93.93,0,0,0-.91-.9.91.91,0,0,0,0,1.81Z" />
            <path class="cls-1"
                d="M11.83,9.26a.9.9,0,0,0,.91-.91.92.92,0,0,0-.91-.9.91.91,0,0,0,0,1.81Z" />
            <path class="cls-1"
                d="M29.42,18V7.14a2.63,2.63,0,0,0-2.63-2.63.63.63,0,1,0,0,1.26,1.35,1.35,0,0,1,1.37,1.37V18a1.35,1.35,0,0,1-1.37,1.37H25.28a.62.62,0,0,0-.63.63v3.28l-3.19-3.71a.62.62,0,0,0-.48-.23H9.84a.63.63,0,1,0,0,1.26H20.67l3.49,4a1,1,0,0,0,.75.35.76.76,0,0,0,.34-.05.92.92,0,0,0,.66-.91V20.67h.88A2.63,2.63,0,0,0,29.42,18Z" />
            <path class="cls-1"
                d="M4.51,20.55a1,1,0,0,0,.75-.35l3.49-4H21.07a2.62,2.62,0,0,0,2.6-2.63h0V2.63A2.63,2.63,0,0,0,21,0H2.63A2.63,2.63,0,0,0,0,2.63v10.9a2.63,2.63,0,0,0,2.63,2.63h.88v3.4A1,1,0,0,0,4.51,20.55ZM2.63,14.93a1.35,1.35,0,0,1-1.37-1.37V2.66A1.35,1.35,0,0,1,2.63,1.29H21.07a1.35,1.35,0,0,1,1.37,1.37v10.9a1.35,1.35,0,0,1-1.37,1.37H8.32v0a.67.67,0,0,0-.36.21L4.77,18.84V15.56a.62.62,0,0,0-.63-.63Z" />
            <path class="cls-1"
                d="M15.26,9.26a.9.9,0,0,0,.9-.91.93.93,0,0,0-.91-.9.91.91,0,1,0,0,1.81Z" />
        </g>
    </g>
</svg>