<?xml version="1.0" encoding="utf-8"?>
<!-- Generator: Adobe Illustrator 26.3.1, SVG Export Plug-In . SVG Version: 6.00 Build 0)  -->
<svg version="1.1" id="Layer_1" xmlns="http://www.w3.org/2000/svg" xmlns:xlink="http://www.w3.org/1999/xlink" x="0px" y="0px"
	 viewBox="0 0 30 30" style="enable-background:new 0 0 30 30;" xml:space="preserve">
<style type="text/css">
	.st0{fill:#424143;}
</style>
<path class="st0" d="M29.4,15.9c0,0.4-0.3,0.6-0.6,0.6c-0.2,0-0.3-0.1-0.4-0.2l-4.1-3.8c-0.1-0.1-0.2-0.3-0.2-0.5V6.3h-2.5v2.3
	c0,0.2-0.1,0.3-0.2,0.5c-0.2,0.2-0.6,0.3-0.9,0L15,4L1.7,16.3c-0.3,0.2-0.7,0.2-0.9,0c0,0,0,0,0,0c-0.2-0.2-0.2-0.6,0-0.9L14.6,2.7
	c0.2-0.2,0.6-0.2,0.9,0l4.7,4.4V5.6c0-0.4,0.3-0.6,0.6-0.6h3.8c0.3,0,0.6,0.3,0.6,0.6v6.2l3.9,3.6h0C29.3,15.5,29.4,15.7,29.4,15.9z
	 M15.4,6.7c-0.2-0.2-0.6-0.2-0.9,0l-9.7,8.9c-0.1,0.1-0.2,0.3-0.2,0.5v10.8c0,0.4,0.3,0.6,0.6,0.6h6c0.4,0,0.6-0.3,0.6-0.6v-7.4h6
	v7.4c0,0.4,0.3,0.6,0.6,0.6h6c0.4,0,0.6-0.3,0.6-0.6V16.1c0-0.2-0.1-0.3-0.2-0.5L15.4,6.7z"/>
</svg>
