<svg id="Layer_1" data-name="Layer 1" xmlns="http://www.w3.org/2000/svg" viewBox="0 0 30 30"><defs><style>.cls-1{fill:#231f20;}.cls-2{fill:#ec6e4e;}</style></defs><path class="cls-1" d="M13.44,3.45a1.22,1.22,0,0,1,.83,1.33A1.94,1.94,0,0,1,14,5.84a8.31,8.31,0,0,0,5.37,12.53c.52.11,1.07.11,1.6.18a.35.35,0,0,1,.24.14A7.55,7.55,0,0,0,23,21.09a1.72,1.72,0,0,1,.55,1.83,1.79,1.79,0,0,1-1.61,1.35H4.73A1.82,1.82,0,0,1,3,23.18a1.78,1.78,0,0,1,.5-2.12,7.15,7.15,0,0,0,1.91-2.61,6.79,6.79,0,0,0,.55-2.58c0-1,0-2,0-3A7.27,7.27,0,0,1,12,5.64l.15,0c0-.28,0-.57,0-.85A1.15,1.15,0,0,1,13,3.45Z"/><path class="cls-2" d="M29.33,10.51c-.1.51-.18,1-.32,1.54a7.53,7.53,0,1,1-8-9.64l.21-.05h1.25l.18.05a7.52,7.52,0,0,1,6.45,5.5c.12.44.18.9.27,1.35Z"/><path class="cls-1" d="M9.4,25.32H17c.06,1.34-1.7,2.92-3.43,3.11A3.92,3.92,0,0,1,9.4,25.32Z"/></svg>