<svg id="Layer_1" data-name="Layer 1" xmlns="http://www.w3.org/2000/svg" viewBox="0 0 30 30"><defs><style>.cls-1{fill:#231f20;}</style></defs><path class="cls-1" d="M17.5,24.4a1.28,1.28,0,0,0,1.06-.95l1.37-5a17.86,17.86,0,0,1,1.11-3,3.77,3.77,0,0,0-1.55-4.94,3.16,3.16,0,0,0-2.62-.22,5.69,5.69,0,0,1-3.75,0,3.17,3.17,0,0,0-2.69.25,3.91,3.91,0,0,0-1.34,1.37,3.75,3.75,0,0,0-.15,3.49,19.5,19.5,0,0,1,1.17,3.14l1.35,4.91a1.26,1.26,0,0,0,1,.94,1.33,1.33,0,0,0,1.3-.52,1.46,1.46,0,0,0,.22-.58l.44-3.66a.56.56,0,0,1,1.11,0L16,23.29a1.27,1.27,0,0,0,1.29,1.12ZM12.83,11.11a6.62,6.62,0,0,0,4.33,0,2.29,2.29,0,0,1,1.9.15,2.93,2.93,0,0,1,1.49,2.57,2.79,2.79,0,0,1-.29,1.24,18.76,18.76,0,0,0-1.16,3.17l-1.37,5a.42.42,0,0,1-.36.32.43.43,0,0,1-.44-.18.48.48,0,0,1-.06-.18l-.45-3.65A1.39,1.39,0,0,0,15,18.28h0a1.39,1.39,0,0,0-1.41,1.25l-.44,3.65a.54.54,0,0,1-.07.19.46.46,0,0,1-.44.17.42.42,0,0,1-.35-.32L11,18.32A21.05,21.05,0,0,0,9.72,15a2.78,2.78,0,0,1-.27-1.21,2.93,2.93,0,0,1,1.43-2.53A2.26,2.26,0,0,1,12.83,11.11Z"/><path class="cls-1" d="M15,9.18a4.55,4.55,0,1,0-4.55-4.55A4.55,4.55,0,0,0,15,9.18ZM11.32,4.63A3.68,3.68,0,1,1,15,8.31,3.68,3.68,0,0,1,11.32,4.63Z"/><circle class="cls-1" cx="8.72" cy="28.48" r="1.44"/><circle class="cls-1" cx="14.7" cy="28.48" r="1.44"/><path class="cls-1" d="M22.65,27.42a.27.27,0,0,0-.38,0L20.72,29,20,28.29a.27.27,0,0,0-.39,0,.28.28,0,0,0,0,.38l.87.87a.3.3,0,0,0,.2.08.27.27,0,0,0,.19-.08l1.74-1.74A.28.28,0,0,0,22.65,27.42Zm-.3.08Z"/><rect class="cls-1" x="10.43" y="28.2" width="2.32" height="0.55"/><rect class="cls-1" x="16.44" y="28.2" width="2.32" height="0.55"/></svg>