<?xml version="1.0" encoding="utf-8"?>
<!-- Generator: Adobe Illustrator 26.3.1, SVG Export Plug-In . SVG Version: 6.00 Build 0)  -->
<svg version="1.1" id="Layer_1" xmlns="http://www.w3.org/2000/svg" xmlns:xlink="http://www.w3.org/1999/xlink" x="0px" y="0px"
	 viewBox="0 0 30 30" style="enable-background:new 0 0 30 30;" xml:space="preserve">
<style type="text/css">
	.st0{fill:#424143;}
</style>
<path class="st0" d="M18.6,16.8v2.7c0,0.5-0.4,0.9-0.9,0.9h-5.4c-0.5,0-0.9-0.4-0.9-0.9v-2.7c0-0.5,0.4-0.9,0.9-0.9h5.4
	C18.2,15.9,18.6,16.3,18.6,16.8z M18.6,10.5c0-0.5-0.4-0.9-0.9-0.9h-5.4c-0.5,0-0.9,0.4-0.9,0.9v1.8h7.2V10.5z M27.7,7.5v15
	c0,2.8-2.2,5-5,5H7.3c-2.8,0-5-2.2-5-5v-15c0-2.8,2.2-5,5-5h15.4C25.5,2.5,27.7,4.7,27.7,7.5z M22.2,14.1c0-1-0.8-1.8-1.8-1.8h-0.9
	v-1.8c0-1-0.8-1.8-1.8-1.8h-5.4c-1,0-1.8,0.8-1.8,1.8v1.8H9.6c-1,0-1.8,0.8-1.8,1.8v2.7c0,1,0.8,1.8,1.8,1.8h0.9v0.9
	c0,1,0.8,1.8,1.8,1.8h5.4c1,0,1.8-0.8,1.8-1.8v-0.9h0.9c1,0,1.8-0.8,1.8-1.8V14.1z M21.3,14.1v2.7c0,0.5-0.4,0.9-0.9,0.9h-0.9v-0.9
	c0-1-0.8-1.8-1.8-1.8h-5.4c-1,0-1.8,0.8-1.8,1.8v0.9H9.6c-0.5,0-0.9-0.4-0.9-0.9v-2.7c0-0.5,0.4-0.9,0.9-0.9h10.9
	C20.9,13.2,21.3,13.6,21.3,14.1z M10.5,14.5c0-0.3-0.2-0.5-0.5-0.5s-0.5,0.2-0.5,0.5c0,0.3,0.2,0.5,0.5,0.5S10.5,14.8,10.5,14.5z"/>
</svg>
