<?xml version="1.0" encoding="utf-8"?>
<!-- Generator: Adobe Illustrator 26.3.1, SVG Export Plug-In . SVG Version: 6.00 Build 0)  -->
<svg version="1.1" id="Layer_1" xmlns="http://www.w3.org/2000/svg" xmlns:xlink="http://www.w3.org/1999/xlink" x="0px" y="0px"
	 viewBox="0 0 30 30" style="enable-background:new 0 0 30 30;" xml:space="preserve">
<style type="text/css">
	.st0{fill:#FFFFFF;}
	.st1{fill:#EA6D4D;}
</style>
<g>
	<g>
		<path class="st0" d="M27.5,16c-0.2,0.8-0.3,1.7-0.5,2.5c-1.6,5.7-7.2,9.4-13.1,8.9C7,26.8,2,20.8,2.5,13.9C3,8,7.8,3.2,13.6,2.6
			c0.1,0,0.2-0.1,0.3-0.1c0.7,0,1.4,0,2.1,0c0.1,0,0.2,0.1,0.3,0.1c5.1,0.6,9.3,4.2,10.7,9.1c0.2,0.7,0.3,1.5,0.5,2.2
			C27.5,14.6,27.5,15.3,27.5,16z"/>
	</g>
	<g>
		<path class="st1" d="M22.1,15.4c0,0.3-0.1,0.5-0.1,0.8c-0.2,1.3-0.9,2.5-1.8,3.5c-0.2,0.2-0.5,0.2-0.7,0c-0.2-0.2-0.2-0.5,0-0.7
			c0.5-0.5,0.9-1.1,1.2-1.7c0.4-0.8,0.5-1.7,0.5-2.7c-0.1-0.8-0.3-1.5-0.6-2.2c-0.3-0.5-0.6-1-1-1.4c-0.1-0.1-0.2-0.2-0.2-0.3
			c0-0.2,0.1-0.4,0.2-0.5c0.2-0.1,0.4-0.1,0.6,0.1c0.3,0.3,0.6,0.7,0.8,1c0.6,0.9,1,2,1.1,3.1c0,0,0,0.1,0,0.1
			C22.1,14.9,22.1,15.1,22.1,15.4z"/>
		<path class="st1" d="M16.4,15c0,2,0,4,0,6.1c0,0.3-0.1,0.5-0.4,0.5c-0.2,0-0.3,0-0.5-0.1c-0.9-0.7-1.8-1.4-2.7-2.1
			c-0.6-0.5-1.2-0.9-1.8-1.4c-0.1,0-0.1-0.1-0.2-0.1c-0.7,0-1.3,0-2,0c-0.7,0-1.1-0.5-1.1-1.1c0-1.2,0-2.4,0-3.6
			c0-0.5,0.3-0.9,0.7-1c0.1,0,0.2,0,0.3,0c0.7,0,1.3,0,2,0c0.1,0,0.2,0,0.2-0.1c1.5-1.2,3-2.4,4.4-3.5c0.2-0.1,0.3-0.2,0.5-0.1
			c0.2,0.1,0.3,0.2,0.3,0.4c0,0.1,0,0.1,0,0.2C16.4,11,16.4,13,16.4,15z M15.5,20.2c0-3.4,0-6.9,0-10.3c0,0-0.1,0.1-0.1,0.1
			c-1.2,1-2.4,1.9-3.6,2.9c0,0-0.1,0.1-0.1,0.2c0,1.3,0,2.7,0,4c0,0.1,0,0.2,0.1,0.2c0.9,0.7,1.7,1.4,2.6,2
			C14.7,19.6,15.1,19.9,15.5,20.2z M10.7,13.1c-0.6,0-1.3,0-1.9,0c0,1.3,0,2.5,0,3.8c0.6,0,1.2,0,1.9,0
			C10.7,15.6,10.7,14.4,10.7,13.1z"/>
		<path class="st1" d="M20.2,15.1c0,1.2-0.5,2.3-1.4,3.2c-0.2,0.2-0.5,0.2-0.7,0c-0.2-0.2-0.2-0.5,0-0.7c0.4-0.4,0.7-0.9,0.9-1.5
			c0.4-1.4,0.2-2.6-0.8-3.7c-0.1-0.1-0.1-0.1-0.2-0.2c-0.2-0.2-0.1-0.5,0-0.6c0.2-0.2,0.5-0.2,0.6,0c0.2,0.2,0.4,0.5,0.6,0.7
			C19.9,13.2,20.2,14.1,20.2,15.1z"/>
	</g>
</g>
</svg>
